<?xml version="1.0" encoding="UTF-8" standalone="no"?>
<!-- Created with Inkscape (http://www.inkscape.org/) -->

<svg
   xmlns:dc="http://purl.org/dc/elements/1.1/"
   xmlns:cc="http://creativecommons.org/ns#"
   xmlns:rdf="http://www.w3.org/1999/02/22-rdf-syntax-ns#"
   xmlns:svg="http://www.w3.org/2000/svg"
   xmlns="http://www.w3.org/2000/svg"
   xmlns:sodipodi="http://sodipodi.sourceforge.net/DTD/sodipodi-0.dtd"
   xmlns:inkscape="http://www.inkscape.org/namespaces/inkscape"
   width="200"
   height="200"
   viewBox="0 0 52.916665 52.916668"
   version="1.1"
   id="svg860"
   inkscape:version="0.92.5 (2060ec1f9f, 2020-04-08)"
   sodipodi:docname="bone.svg">
  <defs
     id="defs854" />
  <sodipodi:namedview
     id="base"
     pagecolor="#ffffff"
     bordercolor="#666666"
     borderopacity="1.0"
     inkscape:pageopacity="0.0"
     inkscape:pageshadow="2"
     inkscape:zoom="2.86"
     inkscape:cx="119.05192"
     inkscape:cy="80.064361"
     inkscape:document-units="mm"
     inkscape:current-layer="layer1"
     showgrid="false"
     units="px"
     inkscape:window-width="1920"
     inkscape:window-height="956"
     inkscape:window-x="0"
     inkscape:window-y="27"
     inkscape:window-maximized="1" />
  <metadata
     id="metadata857">
    <rdf:RDF>
      <cc:Work
         rdf:about="">
        <dc:format>image/svg+xml</dc:format>
        <dc:type
           rdf:resource="http://purl.org/dc/dcmitype/StillImage" />
        <dc:title></dc:title>
      </cc:Work>
    </rdf:RDF>
  </metadata>
  <g
     inkscape:label="Layer 1"
     inkscape:groupmode="layer"
     id="layer1"
     transform="translate(0,-244.08331)">
    <path
       style="fill:#000000;fill-opacity:1;stroke:#000000;stroke-width:0.26458332px;stroke-linecap:butt;stroke-linejoin:miter;stroke-opacity:1"
       d="m 39.28188,257.6355 c -0.141213,0.002 -0.220141,0.0103 -0.220141,0.0103 -4.87907,-0.16372 -6.287471,3.83129 -6.287471,3.83129 l -2.652035,0.0326 c -0.52392,-3.9622 -4.060733,-3.37292 -4.060733,-3.37292 -3.53651,0.22922 -3.405477,3.43855 -3.405477,3.43855 h -2.750737 c -2.357679,-4.58437 -6.810953,-3.70004 -6.810953,-3.70004 -6.1888901,1.11335 -5.7304001,6.1557 -5.7304001,6.1557 0.03274,3.79847 2.521293,5.53403 2.521293,5.53403 0.8840801,1.01511 0.03307,1.93218 0.03307,1.93218 -3.34003,2.75062 -2.488737,5.4684 -2.488737,5.4684 1.04785,6.25438 5.6322151,6.41821 5.6322151,6.41821 4.944561,0.65491 6.843509,-3.86384 6.843509,-3.86384 h 13.130983 c 2.128459,4.42063 6.876581,3.79821 6.876581,3.79821 5.501241,-1.27708 5.501474,-5.89421 5.501474,-5.89421 0.949621,-3.602 -2.423107,-6.18877 -2.423107,-6.18877 -0.88409,-1.01511 -0.03307,-1.93218 -0.03307,-1.93218 3.63474,-2.81611 2.423107,-5.9924 2.423107,-5.9924 -1.08879,-5.41528 -5.110866,-5.69077 -6.099371,-5.67511 z m -12.867431,1.91927 a 1.9204302,1.9227527 0 0 1 1.924947,1.91668 v 0.006 a 1.9204302,1.9227527 0 0 1 -1.918745,1.92288 1.9204302,1.9227527 0 0 1 -1.922363,-1.91978 1.9204302,1.9227527 0 0 1 1.916161,-1.92546 z"
       id="path1564"
       inkscape:connector-curvature="0" />
  </g>
</svg>
