<?xml version="1.0" encoding="UTF-8" standalone="no"?>
<!-- Created with Inkscape (http://www.inkscape.org/) -->

<svg
   xmlns:dc="http://purl.org/dc/elements/1.1/"
   xmlns:cc="http://creativecommons.org/ns#"
   xmlns:rdf="http://www.w3.org/1999/02/22-rdf-syntax-ns#"
   xmlns:svg="http://www.w3.org/2000/svg"
   xmlns="http://www.w3.org/2000/svg"
   xmlns:sodipodi="http://sodipodi.sourceforge.net/DTD/sodipodi-0.dtd"
   xmlns:inkscape="http://www.inkscape.org/namespaces/inkscape"
   width="200"
   height="200"
   viewBox="0 0 52.916665 52.916668"
   version="1.1"
   id="svg860"
   sodipodi:docname="cat.svg"
   inkscape:version="0.92.5 (2060ec1f9f, 2020-04-08)">
  <defs
     id="defs854" />
  <sodipodi:namedview
     id="base"
     pagecolor="#ffffff"
     bordercolor="#666666"
     borderopacity="1.0"
     inkscape:pageopacity="0.0"
     inkscape:pageshadow="2"
     inkscape:zoom="2.86"
     inkscape:cx="137.93304"
     inkscape:cy="108.03639"
     inkscape:document-units="mm"
     inkscape:current-layer="layer1"
     showgrid="false"
     units="px"
     inkscape:window-width="1920"
     inkscape:window-height="956"
     inkscape:window-x="0"
     inkscape:window-y="27"
     inkscape:window-maximized="1" />
  <metadata
     id="metadata857">
    <rdf:RDF>
      <cc:Work
         rdf:about="">
        <dc:format>image/svg+xml</dc:format>
        <dc:type
           rdf:resource="http://purl.org/dc/dcmitype/StillImage" />
        <dc:title></dc:title>
      </cc:Work>
    </rdf:RDF>
  </metadata>
  <g
     inkscape:label="Layer 1"
     inkscape:groupmode="layer"
     id="layer1"
     transform="translate(0,-244.08331)">
    <path
       style="fill:#000000;fill-opacity:1;stroke:#000000;stroke-width:0.26458332px;stroke-linecap:butt;stroke-linejoin:miter;stroke-opacity:1"
       d="m 26.712983,258.9766 c -0.25619,-0.003 -0.421163,0.0222 -0.421163,0.0222 0,0 -2.408248,-0.19775 -2.870108,2.14457 0,0 -0.494925,1.02253 -1.682585,0.13178 0,0 -2.111619,-2.37497 -5.674589,-1.51722 0,0 -0.954261,0.44093 -0.728121,1.15703 0,0 -0.565441,2.56277 1.017509,5.54023 0,0 -3.128186,6.93506 0.03772,11.53315 0,0 0.414682,1.1306 3.505212,0.48989 0,0 2.450014,0.37676 3.053044,2.11047 0,0 1.171888,2.01755 3.374987,1.40456 2.47428,0.39588 3.793566,-1.71565 3.793566,-1.71565 1.15466,-1.91346 3.496945,-1.61644 3.496945,-1.61644 2.17737,0.65979 3.002402,-1.28623 3.002402,-1.28623 3.13409,-4.88259 -0.264067,-10.88719 -0.264067,-10.88719 2.01242,-1.97943 1.154451,-6.03736 1.154451,-6.03736 -0.033,-0.39588 -0.725535,-0.56069 -0.725538,-0.56069 -2.441289,-0.82476 -5.476666,1.28675 -5.476666,1.28675 -0.923732,0.98971 -1.814362,-0.0331 -1.814362,-0.0331 -0.420629,-1.90519 -2.010068,-2.15906 -2.778641,-2.16679 z m -0.34468,1.68879 a 1.9204302,1.9227527 0 0 1 1.924947,1.91667 v 0.006 a 1.9204302,1.9227527 0 0 1 -1.918748,1.92288 1.9204302,1.9227527 0 0 1 -1.921846,-1.91978 1.9204302,1.9227527 0 0 1 1.915647,-1.92598 z"
       id="path1556"
       inkscape:connector-curvature="0" />
  </g>
</svg>
