<?xml version="1.0" encoding="UTF-8" standalone="no"?>
<!-- Created with Inkscape (http://www.inkscape.org/) -->

<svg
   xmlns:dc="http://purl.org/dc/elements/1.1/"
   xmlns:cc="http://creativecommons.org/ns#"
   xmlns:rdf="http://www.w3.org/1999/02/22-rdf-syntax-ns#"
   xmlns:svg="http://www.w3.org/2000/svg"
   xmlns="http://www.w3.org/2000/svg"
   xmlns:sodipodi="http://sodipodi.sourceforge.net/DTD/sodipodi-0.dtd"
   xmlns:inkscape="http://www.inkscape.org/namespaces/inkscape"
   width="50mm"
   height="30mm"
   viewBox="0 0 50 30"
   version="1.1"
   id="svg4651"
   inkscape:version="0.92.5 (2060ec1f9f, 2020-04-08)"
   sodipodi:docname="huesoS.svg">
  <defs
     id="defs4645" />
  <sodipodi:namedview
     id="base"
     pagecolor="#ffffff"
     bordercolor="#666666"
     borderopacity="1.0"
     inkscape:pageopacity="0.0"
     inkscape:pageshadow="2"
     inkscape:zoom="2.02"
     inkscape:cx="214.82699"
     inkscape:cy="76.664702"
     inkscape:document-units="mm"
     inkscape:current-layer="layer1"
     showgrid="false"
     inkscape:window-width="1920"
     inkscape:window-height="956"
     inkscape:window-x="0"
     inkscape:window-y="27"
     inkscape:window-maximized="1" />
  <metadata
     id="metadata4648">
    <rdf:RDF>
      <cc:Work
         rdf:about="">
        <dc:format>image/svg+xml</dc:format>
        <dc:type
           rdf:resource="http://purl.org/dc/dcmitype/StillImage" />
        <dc:title></dc:title>
      </cc:Work>
    </rdf:RDF>
  </metadata>
  <g
     inkscape:label="Layer 1"
     inkscape:groupmode="layer"
     id="layer1"
     transform="translate(0,-267)">
    <path
       inkscape:connector-curvature="0"
       style="fill:#000000;fill-opacity:1;stroke:#000000;stroke-width:0.15162;stroke-linecap:butt;stroke-linejoin:miter;stroke-miterlimit:4;stroke-dasharray:none;stroke-opacity:1"
       d="m 30.780384,291.3054 c 2.963434,6.60643 9.87353,4.21927 9.87353,4.21927 9.072662,-5.46805 1.656707,-12.28488 1.685089,-12.27743 -0.755382,-0.46771 0.04217,-0.95767 0.04217,-0.95767 7.790913,-8.84564 -2.358718,-12.65718 -2.358718,-12.65718 -5.932524,-1.15065 -8.607234,3.72325 -8.607234,3.72325 -0.857715,1.15065 -1.35805,-0.21575 -1.35805,-0.21575 -1.215096,-4.24303 -5.187674,-3.72325 -5.187674,-3.72325 -3.430857,0.0719 -4.360051,3.52388 -4.360051,3.52388 0.0046,0.0116 -0.557127,1.76855 -1.347086,0.0633 0,0 -3.810079,-6.98863 -11.0435094,-2.55753 0,0 -6.591927,4.7246 0.0657,11.52001 -0.05686,0.008 0.758114,0.42712 -0.0904,0.81794 -0.579356,-0.0177 -7.35347493,6.89107 1.082973,12.09262 -0.0018,-0.002 6.2799874,2.87627 9.7828744,-3.59752 z"
       id="path1043"
       sodipodi:nodetypes="cccccccccccccccc" />
    <circle
       style="fill:#ffffff;fill-opacity:1;stroke:#ffffff;stroke-width:0.40236551;stroke-miterlimit:4;stroke-dasharray:none;stroke-opacity:1;paint-order:markers fill stroke"
       id="path5217"
       cx="25.14625"
       cy="273.29486"
       r="1.6988173" />
  </g>
</svg>
