<?xml version="1.0" encoding="UTF-8" standalone="no"?>
<!-- Created with Inkscape (http://www.inkscape.org/) -->

<svg
   xmlns:dc="http://purl.org/dc/elements/1.1/"
   xmlns:cc="http://creativecommons.org/ns#"
   xmlns:rdf="http://www.w3.org/1999/02/22-rdf-syntax-ns#"
   xmlns:svg="http://www.w3.org/2000/svg"
   xmlns="http://www.w3.org/2000/svg"
   xmlns:sodipodi="http://sodipodi.sourceforge.net/DTD/sodipodi-0.dtd"
   xmlns:inkscape="http://www.inkscape.org/namespaces/inkscape"
   width="200"
   height="200"
   viewBox="0 0 52.916665 52.916668"
   version="1.1"
   id="svg860"
   sodipodi:docname="paw.svg"
   inkscape:version="0.92.5 (2060ec1f9f, 2020-04-08)">
  <defs
     id="defs854" />
  <sodipodi:namedview
     id="base"
     pagecolor="#ffffff"
     bordercolor="#666666"
     borderopacity="1.0"
     inkscape:pageopacity="0.0"
     inkscape:pageshadow="2"
     inkscape:zoom="2.86"
     inkscape:cx="137.93304"
     inkscape:cy="108.03639"
     inkscape:document-units="mm"
     inkscape:current-layer="layer1"
     showgrid="false"
     units="px"
     inkscape:window-width="1920"
     inkscape:window-height="956"
     inkscape:window-x="0"
     inkscape:window-y="27"
     inkscape:window-maximized="1" />
  <metadata
     id="metadata857">
    <rdf:RDF>
      <cc:Work
         rdf:about="">
        <dc:format>image/svg+xml</dc:format>
        <dc:type
           rdf:resource="http://purl.org/dc/dcmitype/StillImage" />
        <dc:title></dc:title>
      </cc:Work>
    </rdf:RDF>
  </metadata>
  <g
     inkscape:label="Layer 1"
     inkscape:groupmode="layer"
     id="layer1"
     transform="translate(0,-244.08331)">
    <path
       style="fill:#000000;fill-opacity:1;stroke:#000000;stroke-width:0.26458332px;stroke-linecap:butt;stroke-linejoin:miter;stroke-opacity:1"
       d="m 26.333378,256.24029 c -1.829368,0.0677 -3.166731,2.02313 -3.166731,2.02313 0,0 -4.424967,0.57936 -5.096847,4.35581 0,0 -9.3882517,1.15596 -2.545581,12.2468 0,0 -2.137923,7.32727 6.814571,9.95029 l 8.923486,0.0284 c 8.211201,-2.28088 6.38669,-10.34975 6.38669,-10.34975 6.386491,-11.0053 -2.90835,-12.08867 -2.90835,-12.08867 -0.883838,-3.64943 -5.248775,-4.16615 -5.248775,-4.16615 -1.107014,-1.553 -2.200222,-2.03533 -3.158463,-1.99988 z m 0.03514,1.834 a 1.9204302,1.9227527 0 0 1 1.924948,1.91668 v 0.006 a 1.9204302,1.9227527 0 0 1 -1.918747,1.92288 1.9204302,1.9227527 0 0 1 -1.922363,-1.91978 1.9204302,1.9227527 0 0 1 1.916162,-1.92598 z"
       id="path1532"
       inkscape:connector-curvature="0" />
  </g>
</svg>
