<?xml version="1.0" encoding="UTF-8" standalone="no"?>
<!-- Created with Inkscape (http://www.inkscape.org/) -->

<svg
   xmlns:dc="http://purl.org/dc/elements/1.1/"
   xmlns:cc="http://creativecommons.org/ns#"
   xmlns:rdf="http://www.w3.org/1999/02/22-rdf-syntax-ns#"
   xmlns:svg="http://www.w3.org/2000/svg"
   xmlns="http://www.w3.org/2000/svg"
   xmlns:sodipodi="http://sodipodi.sourceforge.net/DTD/sodipodi-0.dtd"
   xmlns:inkscape="http://www.inkscape.org/namespaces/inkscape"
   width="200"
   height="200"
   viewBox="0 0 52.916665 52.916668"
   version="1.1"
   id="svg860"
   sodipodi:docname="star.svg"
   inkscape:version="0.92.5 (2060ec1f9f, 2020-04-08)">
  <defs
     id="defs854" />
  <sodipodi:namedview
     id="base"
     pagecolor="#ffffff"
     bordercolor="#666666"
     borderopacity="1.0"
     inkscape:pageopacity="0.0"
     inkscape:pageshadow="2"
     inkscape:zoom="2.86"
     inkscape:cx="137.93304"
     inkscape:cy="108.03639"
     inkscape:document-units="mm"
     inkscape:current-layer="layer1"
     showgrid="false"
     units="px"
     inkscape:window-width="1920"
     inkscape:window-height="956"
     inkscape:window-x="0"
     inkscape:window-y="27"
     inkscape:window-maximized="1" />
  <metadata
     id="metadata857">
    <rdf:RDF>
      <cc:Work
         rdf:about="">
        <dc:format>image/svg+xml</dc:format>
        <dc:type
           rdf:resource="http://purl.org/dc/dcmitype/StillImage" />
        <dc:title></dc:title>
      </cc:Work>
    </rdf:RDF>
  </metadata>
  <g
     inkscape:label="Layer 1"
     inkscape:groupmode="layer"
     id="layer1"
     transform="translate(0,-244.08331)">
    <path
       style="fill:#000000;fill-opacity:1;stroke:#000000;stroke-width:0.26458332px;stroke-linecap:butt;stroke-linejoin:miter;stroke-opacity:1"
       d="m 26.432398,252.92121 c -1.539089,0.0652 -2.551782,1.51567 -2.551782,1.51567 l -5.719547,6.843 -7.369059,1.36839 c 0,0 -4.7374594,1.3686 -1.263489,5.19348 l 4.877738,7.4042 -0.526583,9.89552 c 0,0 -0.736463,3.89492 3.614767,2.8422 l 8.772591,-3.40392 9.790101,3.26336 c 0,0 3.053093,1.50926 3.088182,-2.31562 l -0.632002,-10.31668 5.404321,-8.07083 c 0,0 2.42125,-2.94767 -1.473811,-4.45657 l -7.615039,-1.50895 -5.614128,-6.80786 c -1.025303,-1.13386 -1.976069,-1.47953 -2.78226,-1.44539 z m 0.120922,2.10013 a 1.9204302,1.9227527 0 0 1 1.924947,1.91668 v 0.006 a 1.9204302,1.9227527 0 0 1 -1.918745,1.92288 1.9204302,1.9227527 0 0 1 -1.922363,-1.91978 1.9204302,1.9227527 0 0 1 1.916161,-1.92598 z"
       id="path1568"
       inkscape:connector-curvature="0" />
  </g>
</svg>
