<?xml version="1.0" encoding="UTF-8" standalone="no"?>
<svg
   xmlns:dc="http://purl.org/dc/elements/1.1/"
   xmlns:cc="http://creativecommons.org/ns#"
   xmlns:rdf="http://www.w3.org/1999/02/22-rdf-syntax-ns#"
   xmlns:svg="http://www.w3.org/2000/svg"
   xmlns="http://www.w3.org/2000/svg"
   xmlns:sodipodi="http://sodipodi.sourceforge.net/DTD/sodipodi-0.dtd"
   xmlns:inkscape="http://www.inkscape.org/namespaces/inkscape"
   width="210mm"
   height="297mm"
   viewBox="0 0 210 297"
   version="1.1"
   id="svg8"
   inkscape:version="0.92.5 (2060ec1f9f, 2020-04-08)"
   sodipodi:docname="camaV4.svg">
  <defs
     id="defs2" />
  <sodipodi:namedview
     id="base"
     pagecolor="#ffffff"
     bordercolor="#666666"
     borderopacity="1.0"
     inkscape:pageopacity="0.0"
     inkscape:pageshadow="2"
     inkscape:zoom="0.94316065"
     inkscape:cx="304.25709"
     inkscape:cy="922.61657"
     inkscape:document-units="mm"
     inkscape:current-layer="layer1"
     inkscape:document-rotation="0"
     showgrid="false"
     inkscape:window-width="1920"
     inkscape:window-height="956"
     inkscape:window-x="0"
     inkscape:window-y="27"
     inkscape:window-maximized="1" />
  <metadata
     id="metadata5">
    <rdf:RDF>
      <cc:Work
         rdf:about="">
        <dc:format>image/svg+xml</dc:format>
        <dc:type
           rdf:resource="http://purl.org/dc/dcmitype/StillImage" />
        <dc:title></dc:title>
      </cc:Work>
    </rdf:RDF>
  </metadata>
  <g
     inkscape:label="Capa 1"
     inkscape:groupmode="layer"
     id="layer1">
    <rect
       style="fill:none;stroke:#000000;stroke-width:0.2029;stroke-miterlimit:4;stroke-dasharray:none;paint-order:markers fill stroke"
       id="rect1514-3"
       width="179.79709"
       height="97.797096"
       x="18.121372"
       y="12.48815" />
    <ellipse
       style="fill:none;stroke:#000000;stroke-width:0.258141;stroke-miterlimit:4;stroke-dasharray:none;paint-order:markers fill stroke"
       id="path1014"
       cx="27.519922"
       cy="21.8867"
       rx="3.3709297"
       ry="3.3709295" />
    <ellipse
       style="fill:none;stroke:#000000;stroke-width:0.25814101;stroke-miterlimit:4;stroke-dasharray:none;paint-order:markers fill stroke"
       id="path1014-6"
       cx="27.519922"
       cy="100.5"
       rx="3.3709297"
       ry="3.3709295" />
    <ellipse
       style="fill:none;stroke:#000000;stroke-width:0.258141;stroke-miterlimit:4;stroke-dasharray:none;paint-order:markers fill stroke"
       id="path1014-7-5"
       cx="191.51993"
       cy="21.8867"
       rx="3.3709295"
       ry="3.3709297" />
    <ellipse
       style="fill:none;stroke:#000000;stroke-width:0.25814101;stroke-miterlimit:4;stroke-dasharray:none;paint-order:markers fill stroke"
       id="path1014-7-5-6"
       cx="191.51993"
       cy="100.5"
       rx="3.3709295"
       ry="3.3709297" />
    <circle
       style="fill:none;stroke:#000000;stroke-width:0.204823;stroke-miterlimit:4;stroke-dasharray:none;paint-order:markers fill stroke"
       id="path1014-7-36"
       cx="96.014961"
       cy="51.507042"
       r="7.3975887" />
    <circle
       style="fill:none;stroke:#000000;stroke-width:0.204823;stroke-miterlimit:4;stroke-dasharray:none;paint-order:markers fill stroke"
       id="path1014-7-36-7"
       cx="51.977974"
       cy="47.493198"
       r="7.3975887" />
    <circle
       style="fill:none;stroke:#000000;stroke-width:0.204823;stroke-miterlimit:4;stroke-dasharray:none;paint-order:markers fill stroke"
       id="path1014-7-36-7-5"
       cx="129.72496"
       cy="51.5"
       r="7.3975887" />
    <circle
       style="fill:none;stroke:#000000;stroke-width:0.204823;stroke-miterlimit:4;stroke-dasharray:none;paint-order:markers fill stroke"
       id="path1014-7-36-7-5-3"
       cx="170.53334"
       cy="51.5"
       r="7.3975887" />
    <path
       style="fill:none;stroke:#000000;stroke-width:0.26458332px;stroke-linecap:butt;stroke-linejoin:miter;stroke-opacity:1"
       d="m 158.44555,27.296898 c 0,0 -1.09927,-2.615509 -4.81405,-2.501791 0,0 -3.48734,0.341154 -4.5108,3.904308 0,0 -1.36462,4.169653 2.95666,6.14076 0,0 1.81948,0.94765 0.11372,2.236451 0,0 -3.56316,1.402519 -3.44944,4.889863 0,0 -0.41697,2.198544 2.69132,4.434993 0,0 3.63896,2.539696 6.51981,-1.516237 0,0 1.06137,-1.516237 2.38808,-0.03791 0,0 4.5108,3.714782 10.84109,3.8285 0,0 14.7075,0.26534 15.69305,-12.508955 0,0 0.53068,-10.992718 -16.14792,-12.09199 0,0 -4.81405,-0.492776 -10.61366,3.373627 0,0 -1.06136,1.288804 -1.66786,-0.151622 z"
       id="path1554"
       inkscape:connector-curvature="0" />
    <path
       style="fill:none;stroke:#000000;stroke-width:0.26458332px;stroke-linecap:butt;stroke-linejoin:miter;stroke-opacity:1"
       d="m 129.1899,94.407706 c 2.47428,0.395886 3.7939,-1.715502 3.7939,-1.715502 1.15466,-1.913446 3.49698,-1.61653 3.49698,-1.61653 2.17737,0.659807 3.00214,-1.286629 3.00214,-1.286629 3.13409,-4.882584 -0.26393,-10.886846 -0.26393,-10.886846 2.01242,-1.979427 1.15467,-6.037249 1.15467,-6.037249 -0.033,-0.395886 -0.72579,-0.560837 -0.72579,-0.560837 -2.44129,-0.824762 -5.47642,1.286626 -5.47642,1.286626 -0.92373,0.989714 -1.81447,-0.03299 -1.81447,-0.03299 -0.56084,-2.540264 -3.20007,-2.144379 -3.20007,-2.144379 0,0 -2.40831,-0.197943 -2.87017,2.144379 0,0 -0.49486,1.022705 -1.68252,0.131961 0,0 -2.11138,-2.37531 -5.67435,-1.51756 0,0 -0.95427,0.441177 -0.72813,1.157274 0,0 -0.56534,2.562874 1.01761,5.54033 0,0 -3.12821,6.934833 0.0377,11.532929 0,0 0.41458,1.130678 3.50511,0.489961 0,0 2.4498,0.376893 3.05283,2.1106 0,0 1.17182,2.01745 3.37492,1.404463 z"
       id="path1556"
       inkscape:connector-curvature="0"
       sodipodi:nodetypes="ccccccccccccc" />
    <path
       style="fill:none;stroke:#000000;stroke-width:0.26458332px;stroke-linecap:butt;stroke-linejoin:miter;stroke-opacity:1"
       d="m 45.064499,26.581111 h 2.75062 c 0,0 -0.13099,-3.209055 3.40552,-3.438274 0,0 3.53652,-0.589417 4.06044,3.372784 l 2.65239,-0.03274 c 0,0 1.40805,-3.994946 6.28712,-3.831219 0,0 5.07555,-0.523928 6.31988,5.664964 0,0 1.21158,3.17631 -2.42316,5.992419 0,0 -0.85139,0.916874 0.0327,1.931985 0,0 3.37278,2.58689 2.42316,6.18889 0,0 0,4.617111 -5.50124,5.894184 0,0 -4.74809,0.622165 -6.87655,-3.798472 h -13.13092 c 0,0 -1.89924,4.518873 -6.8438,3.863964 0,0 -4.58437,-0.163729 -5.63222,-6.418112 0,0 -0.85138,-2.717874 2.48865,-5.468493 0,0 0.85138,-0.916871 -0.0327,-1.931982 0,0 -2.48866,-1.735508 -2.5214,-5.533983 0,0 -0.45844,-5.0428 5.73045,-6.156145 0,0 4.45338,-0.884132 6.81106,3.700235 z"
       id="path1564"
       inkscape:connector-curvature="0" />
    <path
       style="fill:none;stroke:#000000;stroke-width:0.26458332px;stroke-linecap:butt;stroke-linejoin:miter;stroke-opacity:1"
       d="m 169.52506,65.072435 c -2.9827,-3.298516 -5.33377,0.0702 -5.33377,0.0702 l -5.71978,6.84268 -7.36903,1.36853 c 0,0 -4.73723,1.36853 -1.26326,5.19341 l 4.8776,7.40413 -0.52636,9.89555 c 0,0 -0.7369,3.89506 3.61433,2.84234 l 8.77266,-3.40379 9.79028,3.26343 c 0,0 3.05289,1.508895 3.08798,-2.31598 l -0.63163,-10.31664 5.40395,-8.07085 c 0,0 2.42126,-2.94761 -1.4738,-4.45651 l -7.61467,-1.50889 z"
       id="path1568"
       inkscape:connector-curvature="0" />
    <path
       style="fill:none;stroke:#000000;stroke-width:0.26458332px;stroke-linecap:butt;stroke-linejoin:miter;stroke-opacity:1"
       d="m 117.14474,37.406673 c 0.94962,12.86897 12.607,12.63975 12.607,12.63975 13.0327,-1.21158 12.3123,-12.73798 12.3123,-12.73798 0.19647,-8.67755 -7.26949,-11.36268 -7.26949,-11.36268 -1.17884,-0.32745 -0.91688,-1.0806 -0.91688,-1.0806 l 0.0327,-2.22669 c -0.22922,-4.060438 -4.22417,-3.76573 -4.22417,-3.76573 -3.99494,0.589421 -3.73298,3.99495 -3.73298,3.99495 v 1.86649 c 0,0 -0.13098,0.98236 -0.81863,0.91687 0,0 -8.28461,2.71788 -7.9899,11.75562 z"
       id="path1572"
       inkscape:connector-curvature="0" />
    <path
       style="fill:none;stroke:#000000;stroke-width:0.26458332px;stroke-linecap:butt;stroke-linejoin:miter;stroke-opacity:1"
       d="m 51.233467,61.356323 c 0,0 1.05231,-1.202653 2.59321,-0.03758 l 7.17833,5.449515 c 0,0 1.12748,0.901988 1.50331,-0.07517 l 0.97716,-2.367719 c 0,0 3.00663,-2.668384 3.79587,1.46573 l -0.0752,5.599846 4.09653,3.119379 c 0,0 1.5409,2.067057 -1.72881,2.518049 h -2.51805 l 0.0376,19.43034 -29.38979,0.2255 0.0376,-19.39276 -2.21739,0.0376 c 0,0 -3.83345,-0.78924 -1.5409,-2.969047 z"
       id="path1570"
       inkscape:connector-curvature="0" />
    <circle
       style="fill:none;stroke:#000000;stroke-width:0.20482302;stroke-miterlimit:4;stroke-dasharray:none;paint-order:markers fill stroke"
       id="path1014-7-36-7-7"
       cx="51.897751"
       cy="99.508018"
       r="7.3975887" />
    <circle
       style="fill:none;stroke:#000000;stroke-width:0.20482302;stroke-miterlimit:4;stroke-dasharray:none;paint-order:markers fill stroke"
       id="path1014-7-36-76"
       cx="96.221237"
       cy="98.10537"
       r="7.3975887" />
    <circle
       style="fill:none;stroke:#000000;stroke-width:0.20482302;stroke-miterlimit:4;stroke-dasharray:none;paint-order:markers fill stroke"
       id="path1014-7-36-7-5-7"
       cx="129.04306"
       cy="96.141678"
       r="7.3975887" />
    <circle
       style="fill:none;stroke:#000000;stroke-width:0.20482302;stroke-miterlimit:4;stroke-dasharray:none;paint-order:markers fill stroke"
       id="path1014-7-36-7-5-3-3"
       cx="166.9144"
       cy="98.94696"
       r="7.3975887" />
    <rect
       style="fill:none;stroke:#000000;stroke-width:0.20290002;stroke-miterlimit:4;stroke-dasharray:none;paint-order:markers fill stroke"
       id="rect1514-3-6"
       width="179.79709"
       height="97.797096"
       x="18.104887"
       y="124.94949" />
    <circle
       r="3.3709297"
       style="fill:none;stroke:#000000;stroke-width:0.25814101;stroke-miterlimit:4;stroke-dasharray:none;paint-order:markers fill stroke"
       id="path1014-5"
       cx="27.503439"
       cy="134.34804" />
    <circle
       r="3.3709297"
       style="fill:none;stroke:#000000;stroke-width:0.25814101;stroke-miterlimit:4;stroke-dasharray:none;paint-order:markers fill stroke"
       id="path1014-6-6"
       cx="27.503439"
       cy="212.96133" />
    <circle
       r="3.3709297"
       style="fill:none;stroke:#000000;stroke-width:0.25814101;stroke-miterlimit:4;stroke-dasharray:none;paint-order:markers fill stroke"
       id="path1014-7-5-3"
       cx="191.50343"
       cy="134.34804" />
    <circle
       r="3.3709297"
       style="fill:none;stroke:#000000;stroke-width:0.25814101;stroke-miterlimit:4;stroke-dasharray:none;paint-order:markers fill stroke"
       id="path1014-7-5-6-9"
       cx="191.50343"
       cy="212.96133" />
    <circle
       style="fill:none;stroke:#000000;stroke-width:0.20482302;stroke-miterlimit:4;stroke-dasharray:none;paint-order:markers fill stroke"
       id="path1014-7-36-4"
       cx="95.998474"
       cy="163.96838"
       r="7.3975887" />
    <circle
       style="fill:none;stroke:#000000;stroke-width:0.20482302;stroke-miterlimit:4;stroke-dasharray:none;paint-order:markers fill stroke"
       id="path1014-7-36-7-8"
       cx="51.961487"
       cy="159.95454"
       r="7.3975887" />
    <circle
       style="fill:none;stroke:#000000;stroke-width:0.20482302;stroke-miterlimit:4;stroke-dasharray:none;paint-order:markers fill stroke"
       id="path1014-7-36-7-5-1"
       cx="129.70847"
       cy="163.96133"
       r="7.3975887" />
    <circle
       style="fill:none;stroke:#000000;stroke-width:0.20482302;stroke-miterlimit:4;stroke-dasharray:none;paint-order:markers fill stroke"
       id="path1014-7-36-7-5-3-2"
       cx="170.51685"
       cy="163.96133"
       r="7.3975887" />
    <circle
       style="fill:none;stroke:#000000;stroke-width:0.20482302;stroke-miterlimit:4;stroke-dasharray:none;paint-order:markers fill stroke"
       id="path1014-7-36-7-7-9"
       cx="51.881264"
       cy="211.96936"
       r="7.3975887" />
    <circle
       style="fill:none;stroke:#000000;stroke-width:0.20482302;stroke-miterlimit:4;stroke-dasharray:none;paint-order:markers fill stroke"
       id="path1014-7-36-76-6"
       cx="96.20475"
       cy="210.56671"
       r="7.3975887" />
    <circle
       style="fill:none;stroke:#000000;stroke-width:0.20482302;stroke-miterlimit:4;stroke-dasharray:none;paint-order:markers fill stroke"
       id="path1014-7-36-7-5-7-3"
       cx="129.02658"
       cy="208.60303"
       r="7.3975887" />
    <circle
       style="fill:none;stroke:#000000;stroke-width:0.20482302;stroke-miterlimit:4;stroke-dasharray:none;paint-order:markers fill stroke"
       id="path1014-7-36-7-5-3-3-8"
       cx="166.89792"
       cy="211.40829"
       r="7.3975887" />
    <path
       style="fill:none;fill-opacity:1;stroke:#000000;stroke-width:0.10435098;stroke-miterlimit:4;stroke-dasharray:none;stroke-opacity:1;paint-order:markers fill stroke"
       id="path1560-3"
       sodipodi:type="arc"
       sodipodi:cx="95.940712"
       sodipodi:cy="84.078957"
       sodipodi:rx="14.835834"
       sodipodi:ry="14.78589"
       sodipodi:start="0"
       sodipodi:end="6.2800284"
       d="M 110.77655,84.078957 A 14.835834,14.78589 0 0 1 95.952421,98.864842 14.835834,14.78589 0 0 1 81.104897,84.102295 14.835834,14.78589 0 0 1 95.905585,69.293108 14.835834,14.78589 0 0 1 110.77647,84.032279"
       sodipodi:open="true" />
    <path
       style="fill:none;stroke:#000000;stroke-width:0.26458332px;stroke-linecap:butt;stroke-linejoin:miter;stroke-opacity:1"
       d="m 98.559843,24.280902 c 0,0 3.567717,-0.253729 5.255837,4.170788 0,0 4.79085,0.123195 5.19592,6.087085 0,0 -0.27751,3.246452 -2.46872,5.687681 0,0 2.26404,7.194815 -5.78477,10.094722 l -10.008694,0.07154 c 0,0 -7.230398,-2.793534 -5.821924,-9.762587 0,0 -2.965409,-4.535445 -2.422831,-7.461554 0,0 -0.09458,-3.40746 4.860435,-4.561365 0,0 1.291225,-3.881749 5.285578,-4.346935 0,0 0.644963,-1.75455 2.562565,-2.067274 0,0 2.02407,-0.312355 3.346604,2.087901 z"
       id="path864"
       inkscape:connector-curvature="0" />
  </g>
</svg>
